PathFileType	4	(X/Y/Z)	Kaydara																																																																																																																									
DataRate	CameraRate	NumFrames	NumMarkers	Units	OrigDataRate	OrigDataStartFrame	OrigNumFrames																																																																																																																					
30	30	4	41	mm	30	73	145																																																																																																																					
Frame#	Time	NABA_LFHD			NABA_RFHD			NABA_LBHD			NABA_RBHD			NABA_LFTShould			NABA_RFTShould			NABA_LRRShould			NABA_RRRShould			NABA_T10			NABA_STRN			NABA_TRUN			NABA_LSHO			NABA_LUPA			NABA_LELB			NABA_LFRM			NABA_LWRA			NABA_LWRB			NABA_LFIN			NABA_RSHO			NABA_RUPA			NABA_RELB			NABA_RFRM			NABA_RWRA			NABA_RWRB			NABA_RFIN			NABA_LFWT			NABA_RFWT			NABA_LBWT			NABA_RBWT			NABA_LTHI			NABA_LKNE			NABA_LSHN			NABA_LANK			NABA_LHEE			NABA_LTOE			NABA_RTHI			NABA_RKNE			NABA_RSHN			NABA_RANK			NABA_RHEE			NABA_RTOE		
		X1	Y1	Z1	X2	Y2	Z2	X3	Y3	Z3	X4	Y4	Z4	X5	Y5	Z5	X6	Y6	Z6	X7	Y7	Z7	X8	Y8	Z8	X9	Y9	Z9	X10	Y10	Z10	X11	Y11	Z11	X12	Y12	Z12	X13	Y13	Z13	X14	Y14	Z14	X15	Y15	Z15	X16	Y16	Z16	X17	Y17	Z17	X18	Y18	Z18	X19	Y19	Z19	X20	Y20	Z20	X21	Y21	Z21	X22	Y22	Z22	X23	Y23	Z23	X24	Y24	Z24	X25	Y25	Z25	X26	Y26	Z26	X27	Y27	Z27	X28	Y28	Z28	X29	Y29	Z29	X30	Y30	Z30	X31	Y31	Z31	X32	Y32	Z32	X33	Y33	Z33	X34	Y34	Z34	X35	Y35	Z35	X36	Y36	Z36	X37	Y37	Z37	X38	Y38	Z38	X39	Y39	Z39	X40	Y40	Z40	X41	Y41	Z41
																																																																																																																												
73	2.41	248.45942	1531.63605	-1013.94386	77.26369	1511.62827	-1001.81488	265.86777	1544.99649	-1138.6599	47.07655	1529.48944	-1097.99088	237.62379	1288.80432	-1125.28648	93.66291	1268.25768	-1115.4985	224.10095	1371.61911	-1224.90372	78.89506	1361.16318	-1205.03502	151.20908	1224.07425	-1325.56213	179.66496	1221.73523	-1083.79013	187.66556	1116.04355	-1058.79883	325.28881	1322.31598	-1178.83751	368.29384	1162.39182	-1321.63956	384.60636	1070.94254	-1356.81458	373.4037	1013.4478	-1419.25812	326.77464	849.37988	-1431.58463	396.75121	854.19144	-1448.46588	376.60538	781.47606	-1436.53107	15.87264	1309.27948	-1138.87253	-46.8648	1142.58072	-1259.2955	-95.46819	1012.74559	-1247.64389	-83.15228	913.88885	-1199.99611	3.98182	859.84024	-1086.2529	-66.35316	832.22267	-1069.92531	-38.3566	828.67264	-1025.92674	287.79165	914.13651	-1190.32677	21.96193	913.65067	-1189.38622	240.80242	973.09708	-1355.1767	68.19861	1015.6813	-1349.09058	281.33884	623.01422	-1239.86206	272.5732	503.87581	-1130.07095	227.66174	322.43439	-1055.25597	254.54601	158.29114	-1081.31798	197.46712	97.28663	-1122.28249	228.80703	112.26439	-945.97488	26.50881	669.823	-1389.84924	52.41673	484.39262	-1323.48969	68.49871	323.21671	-1380.66864	70.81261	147.229	-1479.22775	116.9911	115.04611	-1551.10199	92.05356	77.58376	-1383.39935
74	2.443	254.26968	1529.91592	-975.08919	82.88654	1512.56363	-963.56163	272.76751	1541.2709	-1099.85657	53.62013	1529.41528	-1060.13359	242.656	1286.95709	-1083.45123	99.62014	1266.13312	-1068.92754	225.6559	1368.30307	-1184.34921	81.21867	1357.82822	-1160.04799	150.60452	1218.07343	-1279.90059	186.80103	1220.22011	-1038.39523	195.65138	1114.42787	-1012.38518	328.53825	1319.66339	-1140.11055	365.39124	1162.68456	-1282.98843	383.20877	1073.65501	-1322.23419	368.22277	1015.99747	-1386.07132	329.16443	849.76563	-1394.42505	397.24644	858.3815	-1418.56552	384.60182	785.905	-1403.52234	20.95604	1306.02829	-1090.7019	-43.84373	1144.56932	-1213.9492	-96.61105	1014.87709	-1206.03912	-91.09828	911.17416	-1171.3092	-9.61043	834.68102	-1067.62505	-82.65301	812.96112	-1052.36679	-54.08394	799.94087	-1011.27449	288.15168	907.80525	-1137.27875	21.06692	911.85219	-1134.71321	238.00169	964.36951	-1304.65317	69.01785	1010.34668	-1296.42441	284.27378	615.12627	-1188.908	276.38817	492.17564	-1084.04648	228.13046	323.26191	-993.88557	255.48254	157.97178	-996.95854	199.54922	91.59216	-1032.23145	225.1696	125.9737	-856.52924	24.84364	671.44379	-1341.02844	46.56255	483.32253	-1283.1456	63.9013	324.29543	-1353.09769	68.06062	158.33679	-1467.98294	114.47536	133.40155	-1542.07596	89.7063	78.07087	-1379.49219
75	2.477	260.20784	1530.67337	-935.70053	88.16927	1518.49487	-925.70755	280.41355	1538.80493	-1060.39902	60.49137	1533.98514	-1023.06252	246.74021	1288.44559	-1038.43651	104.09938	1267.3288	-1021.12595	227.88612	1366.76361	-1142.15965	83.41131	1356.80344	-1113.57269	152.77834	1213.76205	-1231.30112	192.09324	1222.09671	-991.80939	201.92146	1117.25182	-963.25081	331.44043	1320.17151	-1096.89117	367.19746	1164.67499	-1242.38251	385.32608	1075.06851	-1279.43588	372.23511	1018.8166	-1342.38342	333.76408	852.71622	-1356.13953	402.11662	862.2097	-1378.58902	389.63066	789.62906	-1366.2236	22.90665	1305.84381	-1041.27731	-39.57879	1150.3109	-1171.55006	-98.73716	1023.58856	-1169.13811	-101.49571	917.34238	-1151.24153	-29.19857	816.50032	-1062.96661	-103.52648	797.97676	-1054.77585	-77.11695	775.17799	-1014.88487	288.87232	906.05782	-1080.19875	20.79682	911.31126	-1077.2435	236.50967	961.85684	-1249.71321	71.91334	1007.08771	-1240.51437	282.2192	610.31868	-1141.55823	276.75642	486.82251	-1038.38638	229.70427	314.71823	-948.54385	256.11877	149.42958	-955.49301	200.18198	83.58844	-990.67902	225.3005	114.13241	-814.16725	25.54368	672.74704	-1283.84766	41.36326	482.5174	-1229.17557	59.38921	326.34418	-1314.72244	63.11797	175.07057	-1448.76617	108.67636	160.1687	-1525.38651	87.28824	78.22955	-1372.38907
76	2.51	264.59427	1534.10843	-893.65074	91.95284	1528.70331	-889.73465	289.23626	1538.13293	-1017.82455	68.2284	1542.66098	-988.21701	250.686	1292.49084	-989.60007	107.36013	1273.02879	-972.91794	232.73108	1368.07266	-1095.22278	88.17609	1359.71176	-1068.77831	158.99541	1211.30959	-1180.50941	195.12259	1227.4778	-943.42575	204.92443	1124.39285	-910.10086	335.68459	1322.08145	-1046.95862	373.82362	1165.81924	-1188.4407	392.45399	1075.00671	-1223.84323	380.32707	1021.8399	-1289.50623	337.92377	858.55431	-1313.88077	408.04363	865.77026	-1329.91028	390.15709	792.33589	-1323.60504	25.52669	1311.71494	-995.19943	-38.84628	1163.33778	-1125.48683	-98.42227	1037.06238	-1130.66429	-110.38599	933.58932	-1137.66006	-49.86292	805.36095	-1080.36148	-125.66465	794.89098	-1072.5293	-102.34901	758.87718	-1040.75539	294.03484	904.42902	-1021.47301	26.03957	912.39082	-1015.39345	240.08343	959.94995	-1190.16281	74.26685	1006.15433	-1180.62645	282.89356	608.42827	-1097.08961	277.28525	479.06033	-1001.54503	231.88179	304.69229	-919.9247	251.66052	138.53165	-945.04776	192.55447	81.00382	-974.06914	229.06382	86.51859	-795.08598	24.54245	669.35829	-1218.36266	37.04947	477.8738	-1157.71713	54.4701	327.28626	-1262.06009	58.83805	196.72842	-1416.91071	104.47056	195.15991	-1492.96692	85.65855	76.67405	-1360.79742
